<mxfile host="65bd71144e">
    <diagram id="sqbDasArTt9S2O59a8Kc" name="Página-1">
        <mxGraphModel dx="1524" dy="1655" grid="1" gridSize="10" guides="1" tooltips="1" connect="1" arrows="1" fold="1" page="1" pageScale="1" pageWidth="827" pageHeight="1169" math="0" shadow="0">
            <root>
                <mxCell id="0"/>
                <mxCell id="1" parent="0"/>
                <mxCell id="4" style="edgeStyle=none;html=1;entryX=0.5;entryY=0;entryDx=0;entryDy=0;" edge="1" parent="1" source="2" target="3">
                    <mxGeometry relative="1" as="geometry"/>
                </mxCell>
                <mxCell id="2" value="&lt;font size=&quot;3&quot;&gt;INICIO&lt;/font&gt;" style="ellipse;whiteSpace=wrap;html=1;" vertex="1" parent="1">
                    <mxGeometry x="240" y="-440" width="160" height="80" as="geometry"/>
                </mxCell>
                <mxCell id="10" style="edgeStyle=none;html=1;entryX=0.5;entryY=0;entryDx=0;entryDy=0;" edge="1" parent="1" source="3" target="9">
                    <mxGeometry relative="1" as="geometry"/>
                </mxCell>
                <mxCell id="3" value="&lt;div style=&quot;font-family: &amp;quot;Droid Sans Mono&amp;quot;, &amp;quot;monospace&amp;quot;, monospace; font-size: 14px; line-height: 19px; white-space: pre;&quot;&gt;&lt;div style=&quot;&quot;&gt;&lt;span&gt;&lt;font style=&quot;color: light-dark(rgb(3, 3, 3), rgb(237, 237, 237));&quot;&gt;&lt;span&gt;ANCHURA_VENTANA&lt;/span&gt;&lt;span&gt; &lt;/span&gt;&lt;span&gt;=&lt;/span&gt;&lt;span&gt; &lt;/span&gt;&lt;span&gt;600&lt;/span&gt;&lt;/font&gt;&lt;/span&gt;&lt;/div&gt;&lt;div style=&quot;&quot;&gt;&lt;span&gt;&lt;font style=&quot;color: light-dark(rgb(3, 3, 3), rgb(237, 237, 237));&quot;&gt;&lt;span&gt;ALTURA_VENTANA&lt;/span&gt;&lt;span&gt; &lt;/span&gt;&lt;span&gt;=&lt;/span&gt;&lt;span&gt; &lt;/span&gt;&lt;span&gt;600&lt;/span&gt;&lt;/font&gt;&lt;/span&gt;&lt;/div&gt;&lt;font style=&quot;color: rgb(0, 0, 0);&quot;&gt;&lt;br&gt;&lt;/font&gt;&lt;/div&gt;" style="rounded=0;whiteSpace=wrap;html=1;" vertex="1" parent="1">
                    <mxGeometry x="200" y="-320" width="240" height="80" as="geometry"/>
                </mxCell>
                <mxCell id="11" style="edgeStyle=none;html=1;" edge="1" parent="1" source="9">
                    <mxGeometry relative="1" as="geometry">
                        <mxPoint x="320" y="-80" as="targetPoint"/>
                    </mxGeometry>
                </mxCell>
                <mxCell id="9" value="&lt;div style=&quot;font-family: &amp;quot;Droid Sans Mono&amp;quot;, &amp;quot;monospace&amp;quot;, monospace; font-weight: normal; font-size: 14px; line-height: 19px; white-space: pre;&quot;&gt;&lt;div style=&quot;&quot;&gt;&lt;span&gt;&lt;font&gt;&lt;span&gt;COLOR_FONDO&lt;/span&gt;&lt;span&gt; &lt;/span&gt;&lt;span&gt;=&lt;/span&gt;&lt;span&gt; (&lt;/span&gt;&lt;span&gt;255&lt;/span&gt;&lt;span&gt;, &lt;/span&gt;&lt;span&gt;255&lt;/span&gt;&lt;span&gt;, &lt;/span&gt;&lt;span&gt;250&lt;/span&gt;&lt;span&gt;)&lt;/span&gt;&lt;/font&gt;&lt;/span&gt;&lt;/div&gt;&lt;div style=&quot;&quot;&gt;&lt;span&gt;&lt;font&gt;&lt;span&gt;PANTALLA&lt;/span&gt;&lt;span&gt; &lt;/span&gt;&lt;span&gt;=&lt;/span&gt;&lt;span&gt; &lt;/span&gt;&lt;span&gt;pygame&lt;/span&gt;&lt;span&gt;.&lt;/span&gt;&lt;span&gt;display&lt;/span&gt;&lt;span&gt;.&lt;/span&gt;&lt;span&gt;set_mode&lt;/span&gt;&lt;span&gt;((&lt;/span&gt;&lt;span&gt;ALTURA_VENTANA&lt;/span&gt;&lt;span&gt;, &lt;/span&gt;&lt;span&gt;ANCHURA_VENTANA&lt;/span&gt;&lt;span&gt;))&lt;/span&gt;&lt;/font&gt;&lt;/span&gt;&lt;/div&gt;&lt;/div&gt;" style="rounded=0;whiteSpace=wrap;html=1;strokeColor=default;align=center;" vertex="1" parent="1">
                    <mxGeometry y="-200" width="640" height="80" as="geometry"/>
                </mxCell>
                <mxCell id="13" style="edgeStyle=none;html=1;entryX=0.5;entryY=0;entryDx=0;entryDy=0;" edge="1" parent="1" source="12" target="14">
                    <mxGeometry relative="1" as="geometry">
                        <mxPoint x="320" y="40" as="targetPoint"/>
                    </mxGeometry>
                </mxCell>
                <mxCell id="12" value="&lt;div style=&quot;font-family: &amp;quot;Droid Sans Mono&amp;quot;, &amp;quot;monospace&amp;quot;, monospace; font-size: 14px; line-height: 19px; white-space: pre;&quot;&gt;&lt;div style=&quot;&quot;&gt;&lt;span&gt;&lt;font style=&quot;color: rgb(0, 0, 0);&quot;&gt; # buleano de gestión del bucle&lt;/font&gt;&lt;/span&gt;&lt;/div&gt;&lt;div style=&quot;&quot;&gt;&lt;font style=&quot;color: rgb(0, 0, 0);&quot;&gt;&lt;span&gt;&lt;font&gt;PARAR_JUEGO&lt;/font&gt;&lt;/span&gt;&lt;span&gt; &lt;/span&gt;&lt;span&gt;=&lt;/span&gt;&lt;span&gt; &lt;/span&gt;&lt;span&gt;False&lt;/span&gt;&lt;/font&gt;&lt;/div&gt;&lt;/div&gt;" style="rounded=0;whiteSpace=wrap;html=1;" vertex="1" parent="1">
                    <mxGeometry x="160" y="-80" width="320" height="80" as="geometry"/>
                </mxCell>
                <mxCell id="15" style="edgeStyle=none;html=1;entryX=0.5;entryY=0;entryDx=0;entryDy=0;" edge="1" parent="1" source="14" target="16">
                    <mxGeometry relative="1" as="geometry">
                        <mxPoint x="320" y="240" as="targetPoint"/>
                    </mxGeometry>
                </mxCell>
                <mxCell id="14" value="&lt;div style=&quot;font-family: &amp;quot;Droid Sans Mono&amp;quot;, &amp;quot;monospace&amp;quot;, monospace; font-size: 14px; line-height: 19px; white-space: pre;&quot;&gt;&lt;div style=&quot;&quot;&gt;&lt;span&gt;&lt;font style=&quot;color: rgb(27, 23, 31);&quot;&gt;# Variables COHETE&lt;/font&gt;&lt;/span&gt;&lt;/div&gt;&lt;div style=&quot;&quot;&gt;&lt;span&gt;&lt;font style=&quot;color: rgb(27, 23, 31);&quot;&gt;&lt;span&gt;XX_COHETE&lt;/span&gt;&lt;span&gt; &lt;/span&gt;&lt;span&gt;=&lt;/span&gt;&lt;span&gt; &lt;/span&gt;&lt;span&gt;210&lt;/span&gt;&lt;/font&gt;&lt;/span&gt;&lt;/div&gt;&lt;div style=&quot;&quot;&gt;&lt;span&gt;&lt;font style=&quot;color: rgb(27, 23, 31);&quot;&gt;&lt;span&gt;YY_COHETE&lt;/span&gt;&lt;span&gt; &lt;/span&gt;&lt;span&gt;=&lt;/span&gt;&lt;span&gt; &lt;/span&gt;&lt;span&gt;300&lt;/span&gt;&lt;/font&gt;&lt;/span&gt;&lt;/div&gt;&lt;div style=&quot;&quot;&gt;&lt;span&gt;&lt;font style=&quot;color: rgb(27, 23, 31);&quot;&gt;&lt;span&gt;ALTURA_COHETE&lt;/span&gt;&lt;span&gt; &lt;/span&gt;&lt;span&gt;=&lt;/span&gt;&lt;span&gt; &lt;/span&gt;&lt;span&gt;32&lt;/span&gt;&lt;/font&gt;&lt;/span&gt;&lt;/div&gt;&lt;div style=&quot;&quot;&gt;&lt;span&gt;&lt;font style=&quot;color: rgb(27, 23, 31);&quot;&gt;&lt;span&gt;ANCHURA_COHETE&lt;/span&gt;&lt;span&gt; &lt;/span&gt;&lt;span&gt;=&lt;/span&gt;&lt;span&gt; &lt;/span&gt;&lt;span&gt;32&lt;/span&gt;&lt;/font&gt;&lt;/span&gt;&lt;/div&gt;&lt;div style=&quot;&quot;&gt;&lt;span&gt;&lt;font style=&quot;color: rgb(27, 23, 31);&quot;&gt;&lt;span&gt;MOVIMIENTO_XX_COHETE&lt;/span&gt;&lt;span&gt; &lt;/span&gt;&lt;span&gt;=&lt;/span&gt;&lt;span&gt; &lt;/span&gt;&lt;span&gt;2&lt;/span&gt;&lt;/font&gt;&lt;/span&gt;&lt;/div&gt;&lt;font style=&quot;color: rgb(27, 23, 31);&quot;&gt;&lt;br&gt;&lt;/font&gt;&lt;/div&gt;" style="rounded=0;whiteSpace=wrap;html=1;" vertex="1" parent="1">
                    <mxGeometry x="200" y="40" width="240" height="160" as="geometry"/>
                </mxCell>
                <mxCell id="18" value="" style="edgeStyle=none;html=1;" edge="1" parent="1" source="16" target="17">
                    <mxGeometry relative="1" as="geometry"/>
                </mxCell>
                <mxCell id="16" value="&lt;div style=&quot;font-family: &amp;quot;Droid Sans Mono&amp;quot;, &amp;quot;monospace&amp;quot;, monospace; font-size: 14px; line-height: 19px; white-space: pre;&quot;&gt;&lt;div style=&quot;&quot;&gt;&lt;span&gt;&lt;font style=&quot;color: rgb(27, 23, 31);&quot;&gt;# Variables PLANETAS&lt;/font&gt;&lt;/span&gt;&lt;/div&gt;&lt;div style=&quot;&quot;&gt;&lt;font style=&quot;color: rgb(27, 23, 31);&quot;&gt;&lt;span&gt;XX_PLANETA&lt;/span&gt;&lt;span&gt; &lt;/span&gt;&lt;span&gt;=&lt;/span&gt;&lt;span&gt; &lt;/span&gt;&lt;span&gt;randint&lt;/span&gt;&lt;span&gt;(&lt;/span&gt;&lt;span&gt;30&lt;/span&gt;&lt;span&gt;, &lt;/span&gt;&lt;span&gt;130&lt;/span&gt;&lt;span&gt;)&lt;/span&gt;&lt;/font&gt;&lt;/div&gt;&lt;div style=&quot;&quot;&gt;&lt;font style=&quot;color: rgb(27, 23, 31);&quot;&gt;&lt;span&gt;YY_PLANETA&lt;/span&gt;&lt;span&gt; &lt;/span&gt;&lt;span&gt;=&lt;/span&gt;&lt;span&gt; &lt;/span&gt;&lt;span&gt;20&lt;/span&gt;&lt;/font&gt;&lt;/div&gt;&lt;div style=&quot;&quot;&gt;&lt;font style=&quot;color: rgb(27, 23, 31);&quot;&gt;&lt;span&gt;ALTURA_PLANETA&lt;/span&gt;&lt;span&gt; &lt;/span&gt;&lt;span&gt;=&lt;/span&gt;&lt;span&gt; &lt;/span&gt;&lt;span&gt;32&lt;/span&gt;&lt;/font&gt;&lt;/div&gt;&lt;div style=&quot;&quot;&gt;&lt;font style=&quot;color: rgb(27, 23, 31);&quot;&gt;&lt;span&gt;ANCHURA_PLANETA&lt;/span&gt;&lt;span&gt; &lt;/span&gt;&lt;span&gt;=&lt;/span&gt;&lt;span&gt; &lt;/span&gt;&lt;span&gt;32&lt;/span&gt;&lt;/font&gt;&lt;/div&gt;&lt;div style=&quot;&quot;&gt;&lt;font style=&quot;color: rgb(27, 23, 31);&quot;&gt;&lt;span&gt;XX_ENTRE_PLANETAS&lt;/span&gt;&lt;span&gt; &lt;/span&gt;&lt;span&gt;=&lt;/span&gt;&lt;span&gt; &lt;/span&gt;&lt;span&gt;350&lt;/span&gt;&lt;/font&gt;&lt;/div&gt;&lt;div style=&quot;&quot;&gt;&lt;font style=&quot;color: rgb(27, 23, 31);&quot;&gt;&lt;span&gt;YY_ENTRE_PLANETA&lt;/span&gt;&lt;span&gt; &lt;/span&gt;&lt;span&gt;=&lt;/span&gt;&lt;span&gt; &lt;/span&gt;&lt;span&gt;125&lt;/span&gt;&lt;/font&gt;&lt;/div&gt;&lt;div style=&quot;&quot;&gt;&lt;font style=&quot;color: rgb(27, 23, 31);&quot;&gt;&lt;span&gt;VELOCIDAD_PLANETAS&lt;/span&gt;&lt;span&gt; &lt;/span&gt;&lt;span&gt;=&lt;/span&gt;&lt;span&gt; &lt;/span&gt;&lt;span&gt;2&lt;/span&gt;&lt;/font&gt;&lt;/div&gt;&lt;/div&gt;" style="rounded=0;whiteSpace=wrap;html=1;" vertex="1" parent="1">
                    <mxGeometry x="160" y="240" width="320" height="160" as="geometry"/>
                </mxCell>
                <mxCell id="20" value="" style="edgeStyle=none;html=1;" edge="1" parent="1" source="17" target="19">
                    <mxGeometry relative="1" as="geometry"/>
                </mxCell>
                <mxCell id="17" value="&lt;div style=&quot;font-family: &amp;quot;Droid Sans Mono&amp;quot;, &amp;quot;monospace&amp;quot;, monospace; font-size: 14px; line-height: 19px; white-space: pre;&quot;&gt;&lt;div style=&quot;&quot;&gt;&lt;span&gt;&lt;font style=&quot;color: rgb(27, 23, 31);&quot;&gt;# Puntos y otros&lt;/font&gt;&lt;/span&gt;&lt;/div&gt;&lt;div style=&quot;&quot;&gt;&lt;span&gt;&lt;font style=&quot;color: rgb(27, 23, 31);&quot;&gt;&lt;span&gt;PUNTOS&lt;/span&gt;&lt;span&gt; &lt;/span&gt;&lt;span&gt;=&lt;/span&gt;&lt;span&gt; &lt;/span&gt;&lt;span&gt;0&lt;/span&gt;&lt;/font&gt;&lt;/span&gt;&lt;/div&gt;&lt;div style=&quot;&quot;&gt;&lt;span&gt;&lt;font style=&quot;color: rgb(27, 23, 31);&quot;&gt;&lt;span&gt;FUENTE&lt;/span&gt;&lt;span&gt; &lt;/span&gt;&lt;span&gt;=&lt;/span&gt;&lt;span&gt; &lt;/span&gt;&lt;span&gt;pygame&lt;/span&gt;&lt;span&gt;.&lt;/span&gt;&lt;span&gt;font&lt;/span&gt;&lt;span&gt;.&lt;/span&gt;&lt;span&gt;Font&lt;/span&gt;&lt;span&gt;(&lt;/span&gt;&lt;span&gt;None&lt;/span&gt;&lt;span&gt;, &lt;/span&gt;&lt;span&gt;24&lt;/span&gt;&lt;span&gt;)&lt;/span&gt;&lt;/font&gt;&lt;/span&gt;&lt;/div&gt;&lt;div style=&quot;&quot;&gt;&lt;span&gt;&lt;font style=&quot;color: rgb(27, 23, 31);&quot;&gt;&lt;span&gt;MARCADOR&lt;/span&gt;&lt;span&gt; &lt;/span&gt;&lt;span&gt;=&lt;/span&gt;&lt;span&gt; &lt;/span&gt;&lt;span&gt;FUENTE&lt;/span&gt;&lt;span&gt;.&lt;/span&gt;&lt;span&gt;render&lt;/span&gt;&lt;span&gt;(&lt;/span&gt;&lt;span&gt;&quot;0 puntos&quot;&lt;/span&gt;&lt;span&gt;, &lt;/span&gt;&lt;span&gt;1&lt;/span&gt;&lt;span&gt;, (&lt;/span&gt;&lt;span&gt;255&lt;/span&gt;&lt;span&gt;, &lt;/span&gt;&lt;span&gt;0&lt;/span&gt;&lt;span&gt;, &lt;/span&gt;&lt;span&gt;0&lt;/span&gt;&lt;span&gt;))&lt;/span&gt;&lt;/font&gt;&lt;/span&gt;&lt;/div&gt;&lt;/div&gt;" style="whiteSpace=wrap;html=1;rounded=0;" vertex="1" parent="1">
                    <mxGeometry x="80" y="440" width="480" height="120" as="geometry"/>
                </mxCell>
                <mxCell id="21" style="edgeStyle=none;html=1;entryX=0.5;entryY=0;entryDx=0;entryDy=0;" edge="1" parent="1" source="19" target="22">
                    <mxGeometry relative="1" as="geometry">
                        <mxPoint x="320" y="760" as="targetPoint"/>
                    </mxGeometry>
                </mxCell>
                <UserObject label="&lt;div style=&quot;font-family: &amp;quot;Droid Sans Mono&amp;quot;, &amp;quot;monospace&amp;quot;, monospace; font-weight: normal; font-size: 14px; line-height: 19px; white-space: pre;&quot;&gt;&lt;div style=&quot;&quot;&gt;&lt;span&gt;&lt;font style=&quot;color: rgb(27, 23, 31);&quot;&gt;# IMAGENES&lt;/font&gt;&lt;/span&gt;&lt;/div&gt;&lt;div style=&quot;&quot;&gt;&lt;span&gt;&lt;font style=&quot;color: rgb(27, 23, 31);&quot;&gt;&lt;span&gt;IMG_COHETE&lt;/span&gt;&lt;span&gt; &lt;/span&gt;&lt;span&gt;=&lt;/span&gt;&lt;span&gt; &lt;/span&gt;&lt;span&gt;pygame&lt;/span&gt;&lt;span&gt;.&lt;/span&gt;&lt;span&gt;image&lt;/span&gt;&lt;span&gt;.&lt;/span&gt;&lt;span&gt;load&lt;/span&gt;&lt;span&gt;(&lt;/span&gt;&lt;span&gt;&quot;img/COHETE.png&quot;&lt;/span&gt;&lt;span&gt;)&lt;/span&gt;&lt;/font&gt;&lt;/span&gt;&lt;/div&gt;&lt;div style=&quot;&quot;&gt;&lt;span&gt;&lt;font style=&quot;color: rgb(27, 23, 31);&quot;&gt;&lt;span&gt;IMG_PLANETA_IZQUIERDO&lt;/span&gt;&lt;span&gt; &lt;/span&gt;&lt;span&gt;=&lt;/span&gt;&lt;span&gt; &lt;/span&gt;&lt;span&gt;pygame&lt;/span&gt;&lt;span&gt;.&lt;/span&gt;&lt;span&gt;image&lt;/span&gt;&lt;span&gt;.&lt;/span&gt;&lt;span&gt;load&lt;/span&gt;&lt;span&gt;(&lt;/span&gt;&lt;span&gt;&quot;img/PLANETA.png&quot;&lt;/span&gt;&lt;span&gt;)&lt;/span&gt;&lt;/font&gt;&lt;/span&gt;&lt;/div&gt;&lt;div style=&quot;&quot;&gt;&lt;font style=&quot;color: rgb(27, 23, 31);&quot;&gt;&lt;span&gt;IMG_PLANETA_DERECHO&lt;/span&gt;&lt;span&gt; &lt;/span&gt;&lt;span&gt;=&lt;/span&gt;&lt;span&gt; &lt;/span&gt;&lt;span&gt;pygame&lt;/span&gt;&lt;span&gt;.&lt;/span&gt;&lt;span&gt;image&lt;/span&gt;&lt;span&gt;.&lt;/span&gt;&lt;span&gt;load&lt;/span&gt;&lt;span&gt;(&lt;/span&gt;&lt;span&gt;&quot;img/PLANETA.png&quot;&lt;/span&gt;&lt;span&gt;)&lt;/span&gt;&lt;/font&gt;&lt;/div&gt;&lt;/div&gt;" link="&lt;div style=&quot;color: #cccccc;background-color: #1f1f1f;font-family: &#39;Droid Sans Mono&#39;, &#39;monospace&#39;, monospace;font-weight: normal;font-size: 14px;line-height: 19px;white-space: pre;&quot;&gt;&lt;div&gt;&lt;span style=&quot;color: #6a9955;&quot;&gt;# IMAGENES&lt;/span&gt;&lt;/div&gt;&lt;div&gt;&lt;span style=&quot;color: #4fc1ff;&quot;&gt;IMG_COHETE&lt;/span&gt;&lt;span style=&quot;color: #cccccc;&quot;&gt; &lt;/span&gt;&lt;span style=&quot;color: #d4d4d4;&quot;&gt;=&lt;/span&gt;&lt;span style=&quot;color: #cccccc;&quot;&gt; &lt;/span&gt;&lt;span style=&quot;color: #4ec9b0;&quot;&gt;pygame&lt;/span&gt;&lt;span style=&quot;color: #cccccc;&quot;&gt;.&lt;/span&gt;&lt;span style=&quot;color: #4ec9b0;&quot;&gt;image&lt;/span&gt;&lt;span style=&quot;color: #cccccc;&quot;&gt;.&lt;/span&gt;&lt;span style=&quot;color: #dcdcaa;&quot;&gt;load&lt;/span&gt;&lt;span style=&quot;color: #cccccc;&quot;&gt;(&lt;/span&gt;&lt;span style=&quot;color: #ce9178;&quot;&gt;&quot;img/COHETE.png&quot;&lt;/span&gt;&lt;span style=&quot;color: #cccccc;&quot;&gt;)&lt;/span&gt;&lt;/div&gt;&lt;div&gt;&lt;span style=&quot;color: #4fc1ff;&quot;&gt;IMG_PLANETA_IZQUIERDO&lt;/span&gt;&lt;span style=&quot;color: #cccccc;&quot;&gt; &lt;/span&gt;&lt;span style=&quot;color: #d4d4d4;&quot;&gt;=&lt;/span&gt;&lt;span style=&quot;color: #cccccc;&quot;&gt; &lt;/span&gt;&lt;span style=&quot;color: #4ec9b0;&quot;&gt;pygame&lt;/span&gt;&lt;span style=&quot;color: #cccccc;&quot;&gt;.&lt;/span&gt;&lt;span style=&quot;color: #4ec9b0;&quot;&gt;image&lt;/span&gt;&lt;span style=&quot;color: #cccccc;&quot;&gt;.&lt;/span&gt;&lt;span style=&quot;color: #dcdcaa;&quot;&gt;load&lt;/span&gt;&lt;span style=&quot;color: #cccccc;&quot;&gt;(&lt;/span&gt;&lt;span style=&quot;color: #ce9178;&quot;&gt;&quot;img/PLANETA.png&quot;&lt;/span&gt;&lt;span style=&quot;color: #cccccc;&quot;&gt;)&lt;/span&gt;&lt;/div&gt;&lt;div&gt;&lt;span style=&quot;color: #4fc1ff;&quot;&gt;IMG_PLANETA_DERECHO&lt;/span&gt;&lt;span style=&quot;color: #cccccc;&quot;&gt; &lt;/span&gt;&lt;span style=&quot;color: #d4d4d4;&quot;&gt;=&lt;/span&gt;&lt;span style=&quot;color: #cccccc;&quot;&gt; &lt;/span&gt;&lt;span style=&quot;color: #4ec9b0;&quot;&gt;pygame&lt;/span&gt;&lt;span style=&quot;color: #cccccc;&quot;&gt;.&lt;/span&gt;&lt;span style=&quot;color: #4ec9b0;&quot;&gt;image&lt;/span&gt;&lt;span style=&quot;color: #cccccc;&quot;&gt;.&lt;/span&gt;&lt;span style=&quot;color: #dcdcaa;&quot;&gt;load&lt;/span&gt;&lt;span style=&quot;color: #cccccc;&quot;&gt;(&lt;/span&gt;&lt;span style=&quot;color: #ce9178;&quot;&gt;&quot;img/PLANETA.png&quot;&lt;/span&gt;&lt;span style=&quot;color: #cccccc;&quot;&gt;)&lt;/span&gt;&lt;/div&gt;&lt;/div&gt;" id="19">
                    <mxCell style="rounded=0;whiteSpace=wrap;html=1;" vertex="1" parent="1">
                        <mxGeometry x="40" y="600" width="560" height="120" as="geometry"/>
                    </mxCell>
                </UserObject>
                <mxCell id="25" value="" style="edgeStyle=none;html=1;entryX=0.5;entryY=0;entryDx=0;entryDy=0;" edge="1" parent="1" source="22" target="24">
                    <mxGeometry relative="1" as="geometry">
                        <mxPoint x="320" y="840" as="targetPoint"/>
                    </mxGeometry>
                </mxCell>
                <mxCell id="22" value="&lt;div style=&quot;font-family: &amp;quot;Droid Sans Mono&amp;quot;, &amp;quot;monospace&amp;quot;, monospace; font-size: 14px; line-height: 19px; white-space: pre;&quot;&gt;&lt;div style=&quot;&quot;&gt;&lt;font style=&quot;color: rgb(27, 23, 31);&quot;&gt;pygame.display.set_caption(&quot;PRIMER JUEGO&quot;)&lt;/font&gt;&lt;/div&gt;&lt;/div&gt;" style="rounded=0;whiteSpace=wrap;html=1;" vertex="1" parent="1">
                    <mxGeometry x="120" y="760" width="400" height="40" as="geometry"/>
                </mxCell>
                <mxCell id="27" style="edgeStyle=none;html=1;entryX=0.5;entryY=0;entryDx=0;entryDy=0;" edge="1" parent="1" source="24" target="26">
                    <mxGeometry relative="1" as="geometry"/>
                </mxCell>
                <mxCell id="24" value="&lt;div style=&quot;font-family: &amp;quot;Droid Sans Mono&amp;quot;, &amp;quot;monospace&amp;quot;, monospace; font-size: 14px; line-height: 19px; white-space: pre;&quot;&gt;&lt;span&gt;&lt;font style=&quot;color: rgb(0, 0, 0);&quot;&gt;&lt;span&gt;while&lt;/span&gt;&lt;/font&gt;&lt;/span&gt;&lt;/div&gt;&lt;div style=&quot;font-family: &amp;quot;Droid Sans Mono&amp;quot;, &amp;quot;monospace&amp;quot;, monospace; font-size: 14px; line-height: 19px; white-space: pre;&quot;&gt;&lt;span&gt;&lt;font style=&quot;color: rgb(0, 0, 0);&quot;&gt;&lt;span&gt; &lt;/span&gt;&lt;font&gt;&lt;span&gt;not&lt;/span&gt;&lt;span&gt; &lt;/span&gt;&lt;span&gt;PARAR_JUEGO&lt;/span&gt;&lt;/font&gt;&lt;/font&gt;&lt;/span&gt;&lt;/div&gt;" style="rhombus;whiteSpace=wrap;html=1;rounded=0;" vertex="1" parent="1">
                    <mxGeometry x="240" y="840" width="160" height="160" as="geometry"/>
                </mxCell>
                <mxCell id="29" style="edgeStyle=none;html=1;entryX=0.5;entryY=0;entryDx=0;entryDy=0;" edge="1" parent="1" source="26" target="28">
                    <mxGeometry relative="1" as="geometry"/>
                </mxCell>
                <mxCell id="60" style="edgeStyle=none;html=1;rounded=0;curved=0;" edge="1" parent="1" source="26">
                    <mxGeometry relative="1" as="geometry">
                        <mxPoint x="560" y="1120" as="targetPoint"/>
                        <Array as="points">
                            <mxPoint x="560" y="1080"/>
                        </Array>
                    </mxGeometry>
                </mxCell>
                <mxCell id="26" value="&lt;div style=&quot;font-family: &amp;quot;Droid Sans Mono&amp;quot;, &amp;quot;monospace&amp;quot;, monospace; font-weight: normal; font-size: 14px; line-height: 19px; white-space: pre;&quot;&gt;&lt;div style=&quot;&quot;&gt;&lt;span&gt;&lt;font style=&quot;color: rgb(0, 0, 0);&quot;&gt;&lt;span&gt;for&lt;/span&gt;&lt;span&gt; &lt;/span&gt;&lt;span&gt;event&lt;/span&gt;&lt;span&gt; &lt;/span&gt;&lt;span&gt;in&lt;/span&gt;&lt;span&gt; &lt;/span&gt;&lt;span&gt;pygame&lt;/span&gt;&lt;span&gt;.&lt;/span&gt;&lt;span&gt;event&lt;/span&gt;&lt;span&gt;.&lt;/span&gt;&lt;span&gt;get&lt;/span&gt;&lt;span&gt;():&lt;/span&gt;&lt;/font&gt;&lt;/span&gt;&lt;/div&gt;&lt;/div&gt;" style="shape=hexagon;perimeter=hexagonPerimeter2;whiteSpace=wrap;html=1;fixedSize=1;" vertex="1" parent="1">
                    <mxGeometry x="160" y="1040" width="320" height="80" as="geometry"/>
                </mxCell>
                <mxCell id="30" style="edgeStyle=none;html=1;rounded=0;curved=0;" edge="1" parent="1" source="28">
                    <mxGeometry relative="1" as="geometry">
                        <mxPoint x="480" y="1320" as="targetPoint"/>
                        <Array as="points">
                            <mxPoint x="480" y="1240"/>
                        </Array>
                    </mxGeometry>
                </mxCell>
                <mxCell id="32" style="edgeStyle=none;html=1;rounded=0;curved=0;" edge="1" parent="1" source="28">
                    <mxGeometry relative="1" as="geometry">
                        <mxPoint y="1320" as="targetPoint"/>
                        <Array as="points">
                            <mxPoint y="1240"/>
                        </Array>
                    </mxGeometry>
                </mxCell>
                <mxCell id="28" value="&lt;div style=&quot;font-family: &amp;quot;Droid Sans Mono&amp;quot;, &amp;quot;monospace&amp;quot;, monospace; font-size: 14px; line-height: 19px; white-space: pre;&quot;&gt;&lt;span&gt;&lt;font style=&quot;color: rgb(0, 0, 0);&quot;&gt;&lt;span&gt;if&lt;/span&gt;&lt;/font&gt;&lt;/span&gt;&lt;/div&gt;&lt;div style=&quot;font-family: &amp;quot;Droid Sans Mono&amp;quot;, &amp;quot;monospace&amp;quot;, monospace; font-size: 14px; line-height: 19px; white-space: pre;&quot;&gt;&lt;span&gt;&lt;font style=&quot;color: rgb(0, 0, 0);&quot;&gt;&lt;span&gt; &lt;/span&gt;&lt;span&gt;event&lt;/span&gt;&lt;span&gt;.&lt;/span&gt;&lt;span&gt;type&lt;/span&gt;&lt;span&gt; &lt;/span&gt;&lt;span&gt;==&lt;/span&gt;&lt;/font&gt;&lt;/span&gt;&lt;/div&gt;&lt;div style=&quot;font-family: &amp;quot;Droid Sans Mono&amp;quot;, &amp;quot;monospace&amp;quot;, monospace; font-size: 14px; line-height: 19px; white-space: pre;&quot;&gt;&lt;span&gt;&lt;font style=&quot;color: rgb(0, 0, 0);&quot;&gt;&lt;span&gt; &lt;/span&gt;&lt;span&gt;pygame&lt;/span&gt;&lt;span&gt;.&lt;/span&gt;&lt;span&gt;KEYDOWN&lt;/span&gt;&lt;/font&gt;&lt;/span&gt;&lt;/div&gt;" style="rhombus;whiteSpace=wrap;html=1;" vertex="1" parent="1">
                    <mxGeometry x="240" y="1160" width="160" height="160" as="geometry"/>
                </mxCell>
                <mxCell id="35" style="edgeStyle=none;html=1;entryX=0.5;entryY=0;entryDx=0;entryDy=0;rounded=0;curved=0;" edge="1" parent="1" source="31" target="36">
                    <mxGeometry relative="1" as="geometry">
                        <mxPoint x="640" y="1480" as="targetPoint"/>
                        <Array as="points">
                            <mxPoint x="640" y="1400"/>
                        </Array>
                    </mxGeometry>
                </mxCell>
                <mxCell id="38" style="edgeStyle=none;html=1;strokeColor=default;endArrow=none;endFill=0;rounded=0;curved=0;" edge="1" parent="1" source="31">
                    <mxGeometry relative="1" as="geometry">
                        <mxPoint x="480" y="1560" as="targetPoint"/>
                        <Array as="points">
                            <mxPoint x="320" y="1400"/>
                            <mxPoint x="320" y="1560"/>
                        </Array>
                    </mxGeometry>
                </mxCell>
                <mxCell id="31" value="&lt;div style=&quot;font-family: &amp;quot;Droid Sans Mono&amp;quot;, &amp;quot;monospace&amp;quot;, monospace; font-weight: normal; font-size: 14px; line-height: 19px; white-space: pre;&quot;&gt;&lt;div style=&quot;&quot;&gt;&lt;div style=&quot;line-height: 19px;&quot;&gt;&lt;span&gt;&lt;font style=&quot;color: rgb(0, 0, 0);&quot;&gt;if event.key ==&lt;/font&gt;&lt;/span&gt;&lt;/div&gt;&lt;div style=&quot;line-height: 19px;&quot;&gt;&lt;span&gt;&lt;font style=&quot;color: rgb(0, 0, 0);&quot;&gt; pygame.K_ESCAPE&lt;/font&gt;&lt;/span&gt;&lt;/div&gt;&lt;/div&gt;&lt;/div&gt;" style="rhombus;whiteSpace=wrap;html=1;" vertex="1" parent="1">
                    <mxGeometry x="400" y="1320" width="160" height="160" as="geometry"/>
                </mxCell>
                <mxCell id="39" style="edgeStyle=none;html=1;endArrow=none;endFill=0;rounded=0;curved=0;" edge="1" parent="1" source="36">
                    <mxGeometry relative="1" as="geometry">
                        <mxPoint x="480" y="1600" as="targetPoint"/>
                        <Array as="points">
                            <mxPoint x="640" y="1560"/>
                            <mxPoint x="480" y="1560"/>
                        </Array>
                    </mxGeometry>
                </mxCell>
                <mxCell id="36" value="&lt;div style=&quot;font-family: &amp;quot;Droid Sans Mono&amp;quot;, &amp;quot;monospace&amp;quot;, monospace; font-size: 14px; line-height: 19px; white-space: pre;&quot;&gt;&lt;span&gt;&lt;font style=&quot;color: rgb(0, 0, 0);&quot;&gt;&lt;span&gt;PARAR_JUEGO&lt;/span&gt;&lt;span&gt; &lt;/span&gt;&lt;span&gt;=&lt;/span&gt;&lt;span&gt; &lt;/span&gt;&lt;span&gt;True&lt;/span&gt;&lt;/font&gt;&lt;/span&gt;&lt;/div&gt;" style="rounded=0;whiteSpace=wrap;html=1;" vertex="1" parent="1">
                    <mxGeometry x="560" y="1480" width="160" height="40" as="geometry"/>
                </mxCell>
                <mxCell id="41" style="edgeStyle=none;html=1;rounded=0;curved=0;" edge="1" parent="1" source="40">
                    <mxGeometry relative="1" as="geometry">
                        <mxPoint x="640" y="1760" as="targetPoint"/>
                        <Array as="points">
                            <mxPoint x="640" y="1680"/>
                        </Array>
                    </mxGeometry>
                </mxCell>
                <mxCell id="42" style="edgeStyle=none;html=1;endArrow=none;endFill=0;rounded=0;curved=0;" edge="1" parent="1" source="40">
                    <mxGeometry relative="1" as="geometry">
                        <mxPoint x="480" y="1840" as="targetPoint"/>
                        <Array as="points">
                            <mxPoint x="320" y="1680"/>
                            <mxPoint x="320" y="1840"/>
                        </Array>
                    </mxGeometry>
                </mxCell>
                <mxCell id="40" value="&lt;div style=&quot;font-family: &amp;quot;Droid Sans Mono&amp;quot;, &amp;quot;monospace&amp;quot;, monospace; font-size: 14px; line-height: 19px; white-space: pre;&quot;&gt;&lt;font style=&quot;color: rgb(0, 0, 0);&quot;&gt;&lt;span&gt;if&lt;/span&gt;&lt;/font&gt;&lt;/div&gt;&lt;div style=&quot;font-family: &amp;quot;Droid Sans Mono&amp;quot;, &amp;quot;monospace&amp;quot;, monospace; font-size: 14px; line-height: 19px; white-space: pre;&quot;&gt;&lt;font style=&quot;color: rgb(0, 0, 0);&quot;&gt;&lt;span&gt; &lt;/span&gt;&lt;span&gt;event&lt;/span&gt;&lt;span&gt;.key &lt;/span&gt;&lt;span&gt;==&lt;/span&gt;&lt;/font&gt;&lt;/div&gt;&lt;div style=&quot;font-family: &amp;quot;Droid Sans Mono&amp;quot;, &amp;quot;monospace&amp;quot;, monospace; font-size: 14px; line-height: 19px; white-space: pre;&quot;&gt;&lt;font style=&quot;color: rgb(0, 0, 0);&quot;&gt;&lt;span&gt; &lt;/span&gt;&lt;span&gt;pygame&lt;/span&gt;&lt;span&gt;.&lt;/span&gt;&lt;span&gt;K_RIGHT&lt;/span&gt;&lt;/font&gt;&lt;/div&gt;" style="rhombus;whiteSpace=wrap;html=1;" vertex="1" parent="1">
                    <mxGeometry x="400" y="1600" width="160" height="160" as="geometry"/>
                </mxCell>
                <mxCell id="44" style="edgeStyle=none;html=1;rounded=0;curved=0;endArrow=none;endFill=0;entryX=0.5;entryY=0;entryDx=0;entryDy=0;" edge="1" parent="1" source="43" target="53">
                    <mxGeometry relative="1" as="geometry">
                        <mxPoint x="320" y="1960" as="targetPoint"/>
                        <Array as="points">
                            <mxPoint x="640" y="1840"/>
                            <mxPoint x="480" y="1840"/>
                            <mxPoint x="480" y="1920"/>
                            <mxPoint x="320" y="1920"/>
                        </Array>
                    </mxGeometry>
                </mxCell>
                <mxCell id="43" value="&lt;div style=&quot;font-family: &amp;quot;Droid Sans Mono&amp;quot;, &amp;quot;monospace&amp;quot;, monospace; font-size: 14px; line-height: 19px; white-space: pre;&quot;&gt;&lt;span&gt;&lt;font style=&quot;color: rgb(0, 0, 0);&quot;&gt;&lt;span&gt;MOVIMIENTO_XX_COHETE&lt;/span&gt;&lt;span&gt; = &lt;/span&gt;&lt;/font&gt;&lt;/span&gt;&lt;span style=&quot;background-color: transparent;&quot;&gt;4&lt;/span&gt;&lt;/div&gt;" style="rounded=0;whiteSpace=wrap;html=1;" vertex="1" parent="1">
                    <mxGeometry x="520" y="1760" width="240" height="40" as="geometry"/>
                </mxCell>
                <mxCell id="46" style="edgeStyle=none;html=1;rounded=0;curved=0;" edge="1" parent="1" source="45">
                    <mxGeometry relative="1" as="geometry">
                        <mxPoint x="160" y="1480" as="targetPoint"/>
                        <Array as="points">
                            <mxPoint x="160" y="1400"/>
                        </Array>
                    </mxGeometry>
                </mxCell>
                <mxCell id="48" style="edgeStyle=none;html=1;rounded=0;curved=0;endArrow=none;endFill=0;" edge="1" parent="1" source="45">
                    <mxGeometry relative="1" as="geometry">
                        <mxPoint y="1560" as="targetPoint"/>
                        <Array as="points">
                            <mxPoint x="-160" y="1400"/>
                            <mxPoint x="-160" y="1560"/>
                        </Array>
                    </mxGeometry>
                </mxCell>
                <mxCell id="45" value="&lt;div style=&quot;font-family: &amp;quot;Droid Sans Mono&amp;quot;, &amp;quot;monospace&amp;quot;, monospace; font-size: 14px; line-height: 19px; white-space: pre;&quot;&gt;&lt;span&gt;&lt;font style=&quot;color: rgb(0, 0, 0);&quot;&gt;elif&lt;/font&gt;&lt;/span&gt;&lt;/div&gt;&lt;div style=&quot;font-family: &amp;quot;Droid Sans Mono&amp;quot;, &amp;quot;monospace&amp;quot;, monospace; font-size: 14px; line-height: 19px; white-space: pre;&quot;&gt;&lt;span&gt;&lt;font style=&quot;color: rgb(0, 0, 0);&quot;&gt; event.type ==&lt;/font&gt;&lt;/span&gt;&lt;/div&gt;&lt;div style=&quot;font-family: &amp;quot;Droid Sans Mono&amp;quot;, &amp;quot;monospace&amp;quot;, monospace; font-size: 14px; line-height: 19px; white-space: pre;&quot;&gt;&lt;span&gt;&lt;font style=&quot;color: rgb(0, 0, 0);&quot;&gt; pygame.KEYUP:&lt;/font&gt;&lt;/span&gt;&lt;/div&gt;" style="rhombus;whiteSpace=wrap;html=1;" vertex="1" parent="1">
                    <mxGeometry x="-80" y="1320" width="160" height="160" as="geometry"/>
                </mxCell>
                <mxCell id="49" style="edgeStyle=none;html=1;endArrow=none;endFill=0;rounded=0;curved=0;" edge="1" parent="1" source="47">
                    <mxGeometry relative="1" as="geometry">
                        <mxPoint x="320" y="1920" as="targetPoint"/>
                        <Array as="points">
                            <mxPoint x="160" y="1560"/>
                            <mxPoint y="1560"/>
                            <mxPoint y="1920"/>
                        </Array>
                    </mxGeometry>
                </mxCell>
                <mxCell id="47" value="&lt;div style=&quot;font-family: &amp;quot;Droid Sans Mono&amp;quot;, &amp;quot;monospace&amp;quot;, monospace; font-size: 14px; line-height: 19px; white-space: pre;&quot;&gt;&lt;font style=&quot;color: light-dark(rgb(97, 10, 10), rgb(62, 62, 62));&quot;&gt;&lt;span&gt;MOVIMIENTO_XX_COHETE&lt;/span&gt;&lt;span&gt; &lt;/span&gt;&lt;span&gt;=&lt;/span&gt;&lt;span&gt; &lt;/span&gt;&lt;span&gt;-&lt;/span&gt;&lt;span&gt;4&lt;/span&gt;&lt;/font&gt;&lt;/div&gt;" style="rounded=0;whiteSpace=wrap;html=1;" vertex="1" parent="1">
                    <mxGeometry x="40" y="1480" width="240" height="40" as="geometry"/>
                </mxCell>
                <mxCell id="54" style="edgeStyle=none;html=1;rounded=0;curved=0;" edge="1" parent="1" source="53">
                    <mxGeometry relative="1" as="geometry">
                        <mxPoint x="640" y="2160" as="targetPoint"/>
                        <Array as="points">
                            <mxPoint x="640" y="2080"/>
                        </Array>
                    </mxGeometry>
                </mxCell>
                <mxCell id="56" style="edgeStyle=none;html=1;rounded=0;curved=0;endArrow=none;endFill=0;" edge="1" parent="1" source="53">
                    <mxGeometry relative="1" as="geometry">
                        <mxPoint x="320" y="2280" as="targetPoint"/>
                        <Array as="points">
                            <mxPoint y="2080"/>
                            <mxPoint y="2280"/>
                        </Array>
                    </mxGeometry>
                </mxCell>
                <mxCell id="53" value="&lt;div style=&quot;font-family: &amp;quot;Droid Sans Mono&amp;quot;, &amp;quot;monospace&amp;quot;, monospace; font-size: 14px; line-height: 19px; white-space: pre;&quot;&gt;&lt;span&gt;&lt;font style=&quot;color: rgb(0, 0, 0);&quot;&gt;if &lt;/font&gt;&lt;/span&gt;&lt;/div&gt;&lt;div style=&quot;font-family: &amp;quot;Droid Sans Mono&amp;quot;, &amp;quot;monospace&amp;quot;, monospace; font-size: 14px; line-height: 19px; white-space: pre;&quot;&gt;&lt;span&gt;&lt;font style=&quot;color: rgb(0, 0, 0);&quot;&gt;XX_COHETE &amp;lt; -10 or XX_COHETE &amp;gt; ALTURA_VENTANA:&lt;/font&gt;&lt;/span&gt;&lt;/div&gt;" style="rhombus;whiteSpace=wrap;html=1;" vertex="1" parent="1">
                    <mxGeometry x="80" y="1960" width="480" height="240" as="geometry"/>
                </mxCell>
                <mxCell id="57" style="edgeStyle=none;html=1;rounded=0;curved=0;endArrow=none;endFill=0;entryX=0;entryY=0.5;entryDx=0;entryDy=0;" edge="1" parent="1" source="55" target="26">
                    <mxGeometry relative="1" as="geometry">
                        <mxPoint x="-240" y="1870" as="targetPoint"/>
                        <Array as="points">
                            <mxPoint x="640" y="2280"/>
                            <mxPoint x="320" y="2280"/>
                            <mxPoint x="320" y="2360"/>
                            <mxPoint x="-240" y="2360"/>
                            <mxPoint x="-240" y="1080"/>
                        </Array>
                    </mxGeometry>
                </mxCell>
                <mxCell id="55" value="&lt;div style=&quot;font-family: &amp;quot;Droid Sans Mono&amp;quot;, &amp;quot;monospace&amp;quot;, monospace; font-size: 14px; line-height: 19px; white-space: pre;&quot;&gt;&lt;span&gt;&lt;font style=&quot;color: rgb(0, 0, 0);&quot;&gt;&lt;span&gt;PARAR_JUEGO&lt;/span&gt;&lt;span&gt; &lt;/span&gt;&lt;span&gt;=&lt;/span&gt;&lt;span&gt; &lt;/span&gt;&lt;span&gt;True&lt;/span&gt;&lt;/font&gt;&lt;/span&gt;&lt;/div&gt;" style="rounded=0;whiteSpace=wrap;html=1;" vertex="1" parent="1">
                    <mxGeometry x="560" y="2160" width="160" height="40" as="geometry"/>
                </mxCell>
                <mxCell id="59" style="edgeStyle=none;html=1;endArrow=none;endFill=0;" edge="1" parent="1" source="58">
                    <mxGeometry relative="1" as="geometry">
                        <mxPoint x="320" y="2360" as="targetPoint"/>
                    </mxGeometry>
                </mxCell>
                <mxCell id="63" style="edgeStyle=none;html=1;" edge="1" parent="1" source="58">
                    <mxGeometry relative="1" as="geometry">
                        <mxPoint x="320" y="2480" as="targetPoint"/>
                    </mxGeometry>
                </mxCell>
                <mxCell id="58" value="&lt;div style=&quot;font-family: &amp;quot;Droid Sans Mono&amp;quot;, &amp;quot;monospace&amp;quot;, monospace; font-size: 14px; line-height: 19px; white-space: pre;&quot;&gt;&lt;font style=&quot;color: rgb(0, 0, 0);&quot;&gt;&lt;span&gt;PANTALLA&lt;/span&gt;&lt;span&gt;.&lt;/span&gt;&lt;span&gt;fill&lt;/span&gt;&lt;span&gt;(&lt;/span&gt;&lt;span&gt;COLOR_FONDO&lt;/span&gt;&lt;span&gt;)&lt;/span&gt;&lt;/font&gt;&lt;/div&gt;" style="rounded=0;whiteSpace=wrap;html=1;" vertex="1" parent="1">
                    <mxGeometry x="200" y="2400" width="240" height="40" as="geometry"/>
                </mxCell>
                <mxCell id="62" value="fin del for" style="ellipse;whiteSpace=wrap;html=1;" vertex="1" parent="1">
                    <mxGeometry x="500" y="1120" width="120" height="80" as="geometry"/>
                </mxCell>
                <mxCell id="64" value="&lt;div style=&quot;font-family: &amp;quot;Droid Sans Mono&amp;quot;, &amp;quot;monospace&amp;quot;, monospace; font-weight: normal; font-size: 14px; line-height: 19px; white-space: pre;&quot;&gt;&lt;div style=&quot;&quot;&gt;&lt;font style=&quot;color: rgb(0, 0, 0);&quot;&gt;PANTALLA.blit(IMG_PLANETA_IZQUIERDO, (XX_PLANETA, YY_PLANETA))&lt;/font&gt;&lt;/div&gt;&lt;div style=&quot;&quot;&gt;&lt;span&gt;&lt;font style=&quot;color: rgb(0, 0, 0);&quot;&gt;&lt;span&gt;    &lt;/span&gt;&lt;font&gt;&lt;span&gt;PANTALLA&lt;/span&gt;&lt;span&gt;.&lt;/span&gt;&lt;span&gt;blit&lt;/span&gt;&lt;span&gt;(&lt;/span&gt;&lt;span&gt;IMG_PLANETA_DERECHO&lt;/span&gt;&lt;span&gt;, (&lt;/span&gt;&lt;span&gt;XX_PLANETA&lt;/span&gt;&lt;span&gt; &lt;/span&gt;&lt;span&gt;+&lt;/span&gt;&lt;span&gt; &lt;/span&gt;&lt;span&gt;XX_ENTRE_PLANETAS&lt;/span&gt;&lt;span&gt;, &lt;/span&gt;&lt;span&gt;YY_PLANETA&lt;/span&gt;&lt;span&gt; &lt;/span&gt;&lt;span&gt;+&lt;/span&gt;&lt;span&gt; &lt;/span&gt;&lt;span&gt;YY_ENTRE_PLANETA&lt;/span&gt;&lt;span&gt;))&lt;/span&gt;&lt;/font&gt;&lt;/font&gt;&lt;/span&gt;&lt;/div&gt;&lt;font style=&quot;color: rgb(0, 0, 0);&quot;&gt;&lt;br&gt;&lt;/font&gt;&lt;/div&gt;" style="rounded=0;whiteSpace=wrap;html=1;" vertex="1" parent="1">
                    <mxGeometry x="-120" y="2480" width="880" height="80" as="geometry"/>
                </mxCell>
                <mxCell id="66" value="" style="edgeStyle=none;html=1;endArrow=none;endFill=0;" edge="1" parent="1" source="65" target="64">
                    <mxGeometry relative="1" as="geometry"/>
                </mxCell>
                <mxCell id="71" value="" style="edgeStyle=none;html=1;" edge="1" parent="1" source="65" target="70">
                    <mxGeometry relative="1" as="geometry"/>
                </mxCell>
                <mxCell id="65" value="&lt;div style=&quot;font-family: &amp;quot;Droid Sans Mono&amp;quot;, &amp;quot;monospace&amp;quot;, monospace; font-size: 14px; line-height: 19px; white-space: pre;&quot;&gt;&lt;div style=&quot;&quot;&gt;&lt;span&gt;&lt;font style=&quot;color: rgb(27, 23, 31);&quot;&gt;&lt;br&gt;&lt;/font&gt;&lt;/span&gt;&lt;/div&gt;&lt;div style=&quot;&quot;&gt;&lt;span&gt;&lt;font style=&quot;color: rgb(27, 23, 31);&quot;&gt;YY_PLANETA = YY_PLANETA + VELOCIDAD_PLANETAS&lt;/font&gt;&lt;/span&gt;&lt;/div&gt;&lt;br&gt;&lt;/div&gt;" style="rounded=0;whiteSpace=wrap;html=1;" vertex="1" parent="1">
                    <mxGeometry x="120" y="2600" width="400" height="40" as="geometry"/>
                </mxCell>
                <mxCell id="72" style="edgeStyle=none;html=1;rounded=0;curved=0;entryX=0.5;entryY=0;entryDx=0;entryDy=0;" edge="1" parent="1" source="70" target="73">
                    <mxGeometry relative="1" as="geometry">
                        <mxPoint x="560" y="2840" as="targetPoint"/>
                        <Array as="points">
                            <mxPoint x="720" y="2760"/>
                        </Array>
                    </mxGeometry>
                </mxCell>
                <mxCell id="74" style="edgeStyle=none;html=1;rounded=0;curved=0;endArrow=none;endFill=0;" edge="1" parent="1" source="70">
                    <mxGeometry relative="1" as="geometry">
                        <mxPoint x="320" y="2960" as="targetPoint"/>
                        <Array as="points">
                            <mxPoint x="80" y="2760"/>
                            <mxPoint x="80" y="2960"/>
                        </Array>
                    </mxGeometry>
                </mxCell>
                <mxCell id="70" value="&lt;div style=&quot;font-family: &amp;quot;Droid Sans Mono&amp;quot;, &amp;quot;monospace&amp;quot;, monospace; font-size: 14px; line-height: 19px; white-space: pre;&quot;&gt;&lt;span&gt;&lt;font style=&quot;color: rgb(27, 23, 31);&quot;&gt;&lt;span&gt;if&lt;/span&gt;&lt;/font&gt;&lt;/span&gt;&lt;/div&gt;&lt;div style=&quot;font-family: &amp;quot;Droid Sans Mono&amp;quot;, &amp;quot;monospace&amp;quot;, monospace; font-size: 14px; line-height: 19px; white-space: pre;&quot;&gt;&lt;span&gt;&lt;font style=&quot;color: rgb(27, 23, 31);&quot;&gt;&lt;span&gt; &lt;/span&gt;&lt;span&gt;YY_PLANETA&lt;/span&gt;&lt;span&gt; &lt;/span&gt;&lt;span&gt;&amp;gt;&lt;/span&gt;&lt;span&gt; &lt;/span&gt;&lt;span&gt;ANCHURA_VENTANA&lt;/span&gt;&lt;span&gt;:&lt;/span&gt;&lt;/font&gt;&lt;/span&gt;&lt;/div&gt;" style="rhombus;whiteSpace=wrap;html=1;rounded=0;" vertex="1" parent="1">
                    <mxGeometry x="160" y="2680" width="320" height="160" as="geometry"/>
                </mxCell>
                <mxCell id="75" style="edgeStyle=none;html=1;rounded=0;curved=0;entryX=0.5;entryY=0;entryDx=0;entryDy=0;" edge="1" parent="1" source="73" target="77">
                    <mxGeometry relative="1" as="geometry">
                        <mxPoint x="320" y="3000" as="targetPoint"/>
                        <Array as="points">
                            <mxPoint x="720" y="2960"/>
                            <mxPoint x="320" y="2960"/>
                            <mxPoint x="320" y="2990"/>
                        </Array>
                    </mxGeometry>
                </mxCell>
                <mxCell id="73" value="&lt;div style=&quot;font-family: &amp;quot;Droid Sans Mono&amp;quot;, &amp;quot;monospace&amp;quot;, monospace; font-size: 14px; line-height: 19px; white-space: pre;&quot;&gt;&lt;div style=&quot;line-height: 19px;&quot;&gt;&lt;div style=&quot;&quot;&gt;&lt;font style=&quot;color: rgb(27, 23, 31);&quot;&gt;XX_PLANETA = randint(55, 150)&lt;/font&gt;&lt;/div&gt;&lt;div style=&quot;&quot;&gt;&lt;span&gt;&lt;font style=&quot;color: rgb(27, 23, 31);&quot;&gt;&lt;span&gt;        &lt;/span&gt;&lt;span&gt;YY_PLANETA&lt;/span&gt;&lt;span&gt; &lt;/span&gt;&lt;span&gt;=&lt;/span&gt;&lt;span&gt; &lt;/span&gt;&lt;span&gt;25&lt;/span&gt;&lt;/font&gt;&lt;/span&gt;&lt;/div&gt;&lt;div style=&quot;&quot;&gt;&lt;span&gt;&lt;font style=&quot;color: rgb(27, 23, 31);&quot;&gt;&lt;span&gt;        &lt;/span&gt;&lt;span&gt;PUNTOS&lt;/span&gt;&lt;span&gt; &lt;/span&gt;&lt;span&gt;=&lt;/span&gt;&lt;span&gt; &lt;/span&gt;&lt;span&gt;PUNTOS&lt;/span&gt;&lt;span&gt; &lt;/span&gt;&lt;span&gt;+&lt;/span&gt;&lt;span&gt; &lt;/span&gt;&lt;span&gt;1&lt;/span&gt;&lt;/font&gt;&lt;/span&gt;&lt;/div&gt;&lt;div style=&quot;&quot;&gt;&lt;font style=&quot;color: rgb(27, 23, 31);&quot;&gt;&lt;span&gt;        &lt;/span&gt;&lt;span&gt;MARCADOR&lt;/span&gt;&lt;span&gt; &lt;/span&gt;&lt;span&gt;=&lt;/span&gt;&lt;span&gt; &lt;/span&gt;&lt;span&gt;FUENTE&lt;/span&gt;&lt;span&gt;.&lt;/span&gt;&lt;span&gt;render&lt;/span&gt;&lt;span&gt;(&lt;/span&gt;&lt;span&gt;str&lt;/span&gt;&lt;span&gt;(&lt;/span&gt;&lt;span&gt;PUNTOS&lt;/span&gt;&lt;span&gt;) &lt;/span&gt;&lt;span&gt;+&lt;/span&gt;&lt;span&gt; &lt;/span&gt;&lt;span&gt;&quot; puntos&quot;&lt;/span&gt;&lt;span&gt;, &lt;/span&gt;&lt;span&gt;1&lt;/span&gt;&lt;span&gt;, (&lt;/span&gt;&lt;span&gt;255&lt;/span&gt;&lt;span&gt;, &lt;/span&gt;&lt;span&gt;0&lt;/span&gt;&lt;span&gt;, &lt;/span&gt;&lt;span&gt;0&lt;/span&gt;&lt;span&gt;))&lt;/span&gt;&lt;/font&gt;&lt;/div&gt;&lt;/div&gt;&lt;/div&gt;" style="rounded=0;whiteSpace=wrap;html=1;" vertex="1" parent="1">
                    <mxGeometry x="400" y="2840" width="640" height="80" as="geometry"/>
                </mxCell>
                <mxCell id="79" value="" style="edgeStyle=none;html=1;" edge="1" parent="1" source="77" target="78">
                    <mxGeometry relative="1" as="geometry"/>
                </mxCell>
                <mxCell id="80" value="" style="edgeStyle=none;html=1;" edge="1" parent="1" source="77" target="78">
                    <mxGeometry relative="1" as="geometry"/>
                </mxCell>
                <mxCell id="81" value="obra en&amp;nbsp; la via&lt;div&gt;no tterminada&lt;/div&gt;" style="edgeLabel;html=1;align=center;verticalAlign=middle;resizable=0;points=[];" vertex="1" connectable="0" parent="80">
                    <mxGeometry x="-0.0329" relative="1" as="geometry">
                        <mxPoint as="offset"/>
                    </mxGeometry>
                </mxCell>
                <mxCell id="77" value="&lt;div style=&quot;font-family: &amp;quot;Droid Sans Mono&amp;quot;, &amp;quot;monospace&amp;quot;, monospace; font-size: 14px; line-height: 19px; white-space: pre;&quot;&gt;&lt;div style=&quot;&quot;&gt;&lt;span&gt;&lt;font style=&quot;color: rgb(27, 23, 31);&quot;&gt;# PLANETA IZQUIERDO COLISION&lt;/font&gt;&lt;/span&gt;&lt;/div&gt;&lt;div style=&quot;&quot;&gt;&lt;span&gt;&lt;font style=&quot;color: rgb(27, 23, 31);&quot;&gt;&lt;span&gt;    &lt;/span&gt;&lt;span&gt;PUNTO_INFERIOR_DERECHO_PRIMER_PLANETA_X&lt;/span&gt;&lt;span&gt; &lt;/span&gt;&lt;span&gt;=&lt;/span&gt;&lt;span&gt; &lt;/span&gt;&lt;span&gt;XX_PLANETA&lt;/span&gt;&lt;span&gt; &lt;/span&gt;&lt;span&gt;+&lt;/span&gt;&lt;span&gt; &lt;/span&gt;&lt;span&gt;ALTURA_PLANETA&lt;/span&gt;&lt;/font&gt;&lt;/span&gt;&lt;/div&gt;&lt;div style=&quot;&quot;&gt;&lt;font style=&quot;color: rgb(27, 23, 31);&quot;&gt;    PUNTO_INFERIOR_DERECHO_PRIMER_PLANETA_Y = YY_PLANETA + ANCHURA_PLANETA&lt;/font&gt;&lt;/div&gt;&lt;/div&gt;" style="rounded=0;whiteSpace=wrap;html=1;" vertex="1" parent="1">
                    <mxGeometry y="3000" width="640" height="80" as="geometry"/>
                </mxCell>
                <mxCell id="78" value="" style="rhombus;whiteSpace=wrap;html=1;rounded=0;" vertex="1" parent="1">
                    <mxGeometry x="280" y="3160" width="80" height="80" as="geometry"/>
                </mxCell>
            </root>
        </mxGraphModel>
    </diagram>
</mxfile>